<svg version="1.1" id="Layer_1" xmlns="http://www.w3.org/2000/svg" xmlns:xlink="http://www.w3.org/1999/xlink" x="0px" y="0px"
	 width="100%" viewBox="0 0 2560 1600" enable-background="new 0 0 2560 1600" xml:space="preserve">
<path fill="#01467D" opacity="1.000000" stroke="none" 
	d="
M1698.000000,1601.000000 
	C1132.000000,1601.000000 566.500000,1601.000000 1.000000,1601.000000 
	C1.000000,1067.666626 1.000000,534.333313 1.000000,1.000000 
	C854.333313,1.000000 1707.666626,1.000000 2561.000000,1.000000 
	C2561.000000,534.333313 2561.000000,1067.666626 2561.000000,1601.000000 
	C2273.500000,1601.000000 1986.000000,1601.000000 1698.000000,1601.000000 
M411.403809,1264.356567 
	C381.682312,1256.312866 351.954376,1248.292725 322.240784,1240.219971 
	C274.031830,1227.122192 225.843369,1213.948486 177.606934,1200.952881 
	C173.851944,1199.941162 172.554749,1198.296265 172.563538,1194.429688 
	C172.622971,1168.268677 172.476334,1142.107300 172.379669,1115.946045 
	C172.137680,1050.457275 171.941269,984.968384 171.624512,919.479980 
	C171.296509,851.656982 170.864273,783.834412 170.448456,716.011841 
	C170.005035,643.689941 169.558365,571.367920 169.056091,499.046387 
	C168.563110,428.058319 168.045074,357.070251 167.362885,286.083893 
	C167.316254,281.232666 168.876816,278.550873 173.148819,276.350006 
	C181.284592,272.158661 189.119095,267.381561 197.070374,262.833160 
	C278.750336,216.109360 360.413940,169.356750 442.169006,122.764717 
	C445.019501,121.140228 448.781464,120.416321 452.111603,120.436485 
	C507.601868,120.772362 563.090942,121.300148 618.580444,121.772659 
	C653.906982,122.073479 689.233398,122.401978 724.560364,122.629150 
	C756.555908,122.834923 788.553833,122.779564 820.546997,123.156479 
	C828.641907,123.251854 836.977600,123.541321 844.762024,125.496124 
	C868.013916,131.335129 891.052979,138.024292 914.162903,144.425461 
	C921.665100,146.503479 929.083313,150.378983 936.619324,150.589279 
	C974.925659,151.658234 1013.257507,151.833664 1051.581299,152.244781 
	C1089.407227,152.650558 1127.233887,153.022614 1165.060913,153.297272 
	C1189.884766,153.477509 1214.710205,153.442368 1239.534668,153.538696 
	C1246.786743,153.566833 1253.329224,155.021149 1259.633545,159.453430 
	C1326.685791,206.594345 1393.932251,253.458832 1461.102417,300.432190 
	C1465.381714,303.424866 1469.534424,305.981323 1475.212524,305.685089 
	C1482.846436,305.286835 1490.523071,305.785645 1498.180786,305.750702 
	C1627.836060,305.159424 1757.491211,304.487549 1887.147095,304.103607 
	C1893.695923,304.084198 1897.099731,301.646851 1900.026123,296.338409 
	C1914.009888,270.970886 1928.132324,245.678696 1942.369751,220.452393 
	C1962.180298,185.351059 1982.197144,150.365875 2001.926270,115.219025 
	C2003.642456,112.161583 2005.232178,110.976791 2008.742432,111.015396 
	C2033.071899,111.282974 2057.404053,111.344627 2081.735352,111.401093 
	C2086.062744,111.411133 2090.427734,111.386497 2094.709473,110.850906 
	C2101.390869,110.015160 2106.112061,105.118309 2106.558105,99.176834 
	C2107.006348,93.207466 2103.003662,87.929184 2096.264160,86.259445 
	C2093.066162,85.467087 2089.681641,85.200836 2086.372314,85.128067 
	C2078.376221,84.952293 2070.374512,85.007462 2062.375244,85.010834 
	C2043.210693,85.018913 2024.041260,84.804848 2004.884155,85.195518 
	C1997.343872,85.349289 1989.844360,87.124168 1984.968628,93.808678 
	C1981.736938,98.239098 1978.766479,102.892998 1976.038452,107.652794 
	C1945.312012,161.263336 1914.599487,214.882172 1884.083496,268.612518 
	C1881.594849,272.994446 1878.822388,274.487427 1873.873779,274.515045 
	C1743.886108,275.240143 1613.899292,276.140137 1483.911621,276.859589 
	C1480.992676,276.875763 1477.621704,275.789825 1475.207397,274.131989 
	C1447.054443,254.799789 1419.029175,235.281174 1391.000732,215.767944 
	C1348.889160,186.450104 1306.847290,157.031784 1264.627686,127.870499 
	C1260.812378,125.235252 1256.057861,123.320885 1251.492188,122.563332 
	C1244.965942,121.480476 1238.213013,121.570091 1231.553955,121.515114 
	C1198.392700,121.241287 1165.230469,121.078049 1132.068604,120.887154 
	C1071.411865,120.537964 1010.754761,120.235458 950.098694,119.804352 
	C942.290833,119.748856 934.187622,120.258537 926.736755,118.418640 
	C901.036255,112.072250 875.583496,104.728302 849.995178,97.919144 
	C840.376160,95.359482 830.669861,91.324852 820.959961,91.194359 
	C743.148010,90.148613 665.325989,89.823006 587.506409,89.388771 
	C541.346680,89.131203 495.185699,89.113365 449.025726,88.892792 
	C441.335052,88.856049 434.258423,90.532837 427.570801,94.381927 
	C372.140381,126.285233 316.626343,158.043457 261.235291,190.014908 
	C222.584991,212.323715 184.117828,234.949646 145.499542,257.314240 
	C137.325424,262.048035 134.330383,269.142212 134.415543,278.141449 
	C134.563782,293.803497 134.600845,309.466553 134.688141,325.129181 
	C135.362503,446.110199 136.021210,567.091309 136.717941,688.072205 
	C137.266907,783.390442 137.816406,878.708740 138.454712,974.026428 
	C138.878754,1037.349609 139.353607,1100.672852 140.045105,1163.993530 
	C140.217651,1179.794922 141.471863,1195.581787 141.903824,1211.384277 
	C142.058044,1217.026367 144.706573,1219.903076 149.806671,1221.341797 
	C166.949905,1226.177368 184.034470,1231.224854 201.211044,1235.937744 
	C241.519135,1246.997314 281.859253,1257.940552 322.201752,1268.874268 
	C370.580780,1281.986084 418.975128,1295.041382 467.364319,1308.115845 
	C477.331268,1310.808716 487.246765,1313.723633 497.291260,1316.089111 
	C507.770660,1318.557129 516.564453,1311.015747 514.919006,1301.229980 
	C513.820190,1294.695068 509.224274,1291.178345 503.248718,1289.528076 
	C472.912109,1281.150269 442.540436,1272.899170 411.403809,1264.356567 
M1005.500854,1109.002930 
	C962.016174,1108.505615 918.532654,1107.804932 875.046509,1107.561035 
	C816.723145,1107.233765 758.397705,1107.229248 700.073181,1107.205078 
	C696.314392,1107.203491 692.373596,1107.684937 688.837646,1108.884888 
	C683.182068,1110.804443 679.924561,1116.337158 680.101196,1122.170776 
	C680.277039,1127.978760 683.947266,1133.207153 689.573120,1135.002441 
	C692.230835,1135.850708 695.110168,1136.345581 697.899170,1136.391968 
	C770.872070,1137.606445 843.843872,1138.935425 916.820923,1139.833374 
	C985.803467,1140.682007 1054.792114,1141.009399 1123.777222,1141.664062 
	C1213.754639,1142.517944 1303.731323,1143.457886 1393.707275,1144.451660 
	C1395.550171,1144.471924 1397.661133,1145.201782 1399.176025,1146.269165 
	C1433.217407,1170.252319 1467.196411,1194.324097 1501.179443,1218.390137 
	C1541.135620,1246.686157 1581.061768,1275.024536 1621.097656,1303.207153 
	C1623.238037,1304.713745 1626.277222,1305.682007 1628.891235,1305.667603 
	C1681.047852,1305.380981 1733.203857,1304.962280 1785.359009,1304.465332 
	C1827.348755,1304.065308 1869.338013,1303.580933 1911.325684,1303.008911 
	C1921.116943,1302.875366 1927.749878,1296.891113 1927.988403,1288.610474 
	C1928.227051,1280.322388 1921.834106,1274.216553 1912.058228,1273.407227 
	C1911.228516,1273.338623 1910.393555,1273.299316 1909.561157,1273.301758 
	C1893.066895,1273.350342 1876.572266,1273.343872 1860.078613,1273.472900 
	C1782.927246,1274.076904 1705.776367,1274.740479 1628.624512,1275.247803 
	C1626.164551,1275.263916 1623.324707,1274.350464 1621.294556,1272.952026 
	C1612.930176,1267.189697 1604.853149,1261.012329 1596.593140,1255.095703 
	C1532.948730,1209.507324 1469.244263,1164.002686 1405.691406,1118.287109 
	C1398.967896,1113.450684 1392.130737,1110.884644 1383.881836,1111.930664 
	C1380.259888,1112.390015 1376.565796,1112.463135 1372.907349,1112.425781 
	C1331.754150,1112.005981 1290.601929,1111.460327 1249.448364,1111.084839 
	C1168.466187,1110.345825 1087.483154,1109.693115 1005.500854,1109.002930 
M2449.593750,1051.500000 
	C2449.625732,1038.335938 2449.656250,1025.171875 2449.689941,1012.007812 
	C2449.955811,908.359375 2450.280273,804.711060 2450.469727,701.062439 
	C2450.609375,624.744629 2450.594727,548.426575 2450.547852,472.108612 
	C2450.545654,468.507019 2450.055420,464.741486 2448.923584,461.341705 
	C2447.028320,455.651093 2441.630371,452.373962 2435.731689,452.505493 
	C2429.888184,452.635803 2424.753906,456.274872 2422.916992,461.942291 
	C2422.157471,464.286713 2421.704102,466.815063 2421.617432,469.277618 
	C2421.330078,477.435059 2421.151855,485.600555 2421.145264,493.763092 
	C2421.045166,617.742310 2420.969238,741.721497 2420.909668,865.700745 
	C2420.876221,935.355713 2420.855713,1005.010681 2420.901611,1074.665649 
	C2420.908203,1084.855103 2426.483154,1091.228394 2434.950195,1091.317505 
	C2443.521973,1091.407715 2449.047607,1085.183838 2449.290527,1074.993408 
	C2449.469238,1067.497437 2449.494629,1059.997803 2449.593750,1051.500000 
M2204.437988,1413.046021 
	C2205.845215,1402.820923 2207.669678,1392.632812 2208.578125,1382.363647 
	C2210.898193,1356.136841 2206.400879,1330.599854 2200.036377,1305.287598 
	C2193.348633,1278.690918 2183.677002,1253.211548 2171.722412,1228.562988 
	C2170.945312,1226.960693 2170.592041,1225.152832 2169.903076,1223.009644 
	C2171.344971,1223.199829 2171.962402,1223.091797 2172.285156,1223.350952 
	C2186.914307,1235.101318 2201.701172,1246.666992 2216.018555,1258.787476 
	C2220.630859,1262.691895 2225.718018,1264.754028 2230.370361,1262.163086 
	C2235.405762,1259.358765 2237.865234,1253.112915 2235.148438,1247.531128 
	C2233.240967,1243.612427 2230.553711,1239.569458 2227.155762,1236.961304 
	C2203.915039,1219.122192 2180.455078,1201.566162 2156.896484,1184.147827 
	C2153.493408,1181.631836 2149.325928,1179.906372 2145.262939,1178.575562 
	C2135.761719,1175.463013 2126.382568,1179.253906 2122.446533,1188.512207 
	C2119.816650,1194.698853 2118.018066,1201.498169 2117.282715,1208.181274 
	C2115.280029,1226.380127 2114.038330,1244.662842 2112.498291,1262.912598 
	C2112.106445,1267.554932 2111.449951,1272.196533 2111.418213,1276.841797 
	C2111.383057,1282.065674 2114.604492,1286.004517 2118.869385,1286.803589 
	C2123.464355,1287.664429 2127.364746,1285.528076 2129.779541,1280.754639 
	C2130.301758,1279.722412 2130.670654,1278.605469 2131.041260,1277.504395 
	C2136.179932,1262.232178 2138.474854,1246.457520 2139.473633,1230.435547 
	C2139.702881,1226.760620 2140.441650,1223.117554 2140.945801,1219.459839 
	C2141.438232,1219.395386 2141.930664,1219.330933 2142.422852,1219.266479 
	C2143.264893,1220.766357 2144.253662,1222.203247 2144.927490,1223.775146 
	C2160.230713,1259.468384 2174.295410,1295.518799 2181.920898,1333.863403 
	C2186.134521,1355.049805 2187.093994,1376.139893 2184.489258,1397.431519 
	C2183.616699,1404.564331 2183.367920,1411.868530 2178.835449,1418.348633 
	C2175.675781,1422.866211 2178.455322,1428.828979 2183.544434,1431.206787 
	C2189.728027,1434.095825 2197.428467,1430.982544 2200.947021,1423.780396 
	C2202.463379,1420.676270 2203.177002,1417.179932 2204.437988,1413.046021 
z"/>
<path fill="#EE8C31" opacity="1.000000" stroke="none" 
	d="
M411.792419,1264.480225 
	C442.540436,1272.899170 472.912109,1281.150269 503.248718,1289.528076 
	C509.224274,1291.178345 513.820190,1294.695068 514.919006,1301.229980 
	C516.564453,1311.015747 507.770660,1318.557129 497.291260,1316.089111 
	C487.246765,1313.723633 477.331268,1310.808716 467.364319,1308.115845 
	C418.975128,1295.041382 370.580780,1281.986084 322.201752,1268.874268 
	C281.859253,1257.940552 241.519135,1246.997314 201.211044,1235.937744 
	C184.034470,1231.224854 166.949905,1226.177368 149.806671,1221.341797 
	C144.706573,1219.903076 142.058044,1217.026367 141.903824,1211.384277 
	C141.471863,1195.581787 140.217651,1179.794922 140.045105,1163.993530 
	C139.353607,1100.672852 138.878754,1037.349609 138.454712,974.026428 
	C137.816406,878.708740 137.266907,783.390442 136.717941,688.072205 
	C136.021210,567.091309 135.362503,446.110199 134.688141,325.129181 
	C134.600845,309.466553 134.563782,293.803497 134.415543,278.141449 
	C134.330383,269.142212 137.325424,262.048035 145.499542,257.314240 
	C184.117828,234.949646 222.584991,212.323715 261.235291,190.014908 
	C316.626343,158.043457 372.140381,126.285233 427.570801,94.381927 
	C434.258423,90.532837 441.335052,88.856049 449.025726,88.892792 
	C495.185699,89.113365 541.346680,89.131203 587.506409,89.388771 
	C665.325989,89.823006 743.148010,90.148613 820.959961,91.194359 
	C830.669861,91.324852 840.376160,95.359482 849.995178,97.919144 
	C875.583496,104.728302 901.036255,112.072250 926.736755,118.418640 
	C934.187622,120.258537 942.290833,119.748856 950.098694,119.804352 
	C1010.754761,120.235458 1071.411865,120.537964 1132.068604,120.887154 
	C1165.230469,121.078049 1198.392700,121.241287 1231.553955,121.515114 
	C1238.213013,121.570091 1244.965942,121.480476 1251.492188,122.563332 
	C1256.057861,123.320885 1260.812378,125.235252 1264.627686,127.870499 
	C1306.847290,157.031784 1348.889160,186.450104 1391.000732,215.767944 
	C1419.029175,235.281174 1447.054443,254.799789 1475.207397,274.131989 
	C1477.621704,275.789825 1480.992676,276.875763 1483.911621,276.859589 
	C1613.899292,276.140137 1743.886108,275.240143 1873.873779,274.515045 
	C1878.822388,274.487427 1881.594849,272.994446 1884.083496,268.612518 
	C1914.599487,214.882172 1945.312012,161.263336 1976.038452,107.652794 
	C1978.766479,102.892998 1981.736938,98.239098 1984.968628,93.808678 
	C1989.844360,87.124168 1997.343872,85.349289 2004.884155,85.195518 
	C2024.041260,84.804848 2043.210693,85.018913 2062.375244,85.010834 
	C2070.374512,85.007462 2078.376221,84.952293 2086.372314,85.128067 
	C2089.681641,85.200836 2093.066162,85.467087 2096.264160,86.259445 
	C2103.003662,87.929184 2107.006348,93.207466 2106.558105,99.176834 
	C2106.112061,105.118309 2101.390869,110.015160 2094.709473,110.850906 
	C2090.427734,111.386497 2086.062744,111.411133 2081.735352,111.401093 
	C2057.404053,111.344627 2033.071899,111.282974 2008.742432,111.015396 
	C2005.232178,110.976791 2003.642456,112.161583 2001.926270,115.219025 
	C1982.197144,150.365875 1962.180298,185.351059 1942.369751,220.452393 
	C1928.132324,245.678696 1914.009888,270.970886 1900.026123,296.338409 
	C1897.099731,301.646851 1893.695923,304.084198 1887.147095,304.103607 
	C1757.491211,304.487549 1627.836060,305.159424 1498.180786,305.750702 
	C1490.523071,305.785645 1482.846436,305.286835 1475.212524,305.685089 
	C1469.534424,305.981323 1465.381714,303.424866 1461.102417,300.432190 
	C1393.932251,253.458832 1326.685791,206.594345 1259.633545,159.453430 
	C1253.329224,155.021149 1246.786743,153.566833 1239.534668,153.538696 
	C1214.710205,153.442368 1189.884766,153.477509 1165.060913,153.297272 
	C1127.233887,153.022614 1089.407227,152.650558 1051.581299,152.244781 
	C1013.257507,151.833664 974.925659,151.658234 936.619324,150.589279 
	C929.083313,150.378983 921.665100,146.503479 914.162903,144.425461 
	C891.052979,138.024292 868.013916,131.335129 844.762024,125.496124 
	C836.977600,123.541321 828.641907,123.251854 820.546997,123.156479 
	C788.553833,122.779564 756.555908,122.834923 724.560364,122.629150 
	C689.233398,122.401978 653.906982,122.073479 618.580444,121.772659 
	C563.090942,121.300148 507.601868,120.772362 452.111603,120.436485 
	C448.781464,120.416321 445.019501,121.140228 442.169006,122.764717 
	C360.413940,169.356750 278.750336,216.109360 197.070374,262.833160 
	C189.119095,267.381561 181.284592,272.158661 173.148819,276.350006 
	C168.876816,278.550873 167.316254,281.232666 167.362885,286.083893 
	C168.045074,357.070251 168.563110,428.058319 169.056091,499.046387 
	C169.558365,571.367920 170.005035,643.689941 170.448456,716.011841 
	C170.864273,783.834412 171.296509,851.656982 171.624512,919.479980 
	C171.941269,984.968384 172.137680,1050.457275 172.379669,1115.946045 
	C172.476334,1142.107300 172.622971,1168.268677 172.563538,1194.429688 
	C172.554749,1198.296265 173.851944,1199.941162 177.606934,1200.952881 
	C225.843369,1213.948486 274.031830,1227.122192 322.240784,1240.219971 
	C351.954376,1248.292725 381.682312,1256.312866 411.792419,1264.480225 
z"/>
<path fill="#ED8C31" opacity="1.000000" stroke="none" 
	d="
M1006.000732,1109.003906 
	C1087.483154,1109.693115 1168.466187,1110.345825 1249.448364,1111.084839 
	C1290.601929,1111.460327 1331.754150,1112.005981 1372.907349,1112.425781 
	C1376.565796,1112.463135 1380.259888,1112.390015 1383.881836,1111.930664 
	C1392.130737,1110.884644 1398.967896,1113.450684 1405.691406,1118.287109 
	C1469.244263,1164.002686 1532.948730,1209.507324 1596.593140,1255.095703 
	C1604.853149,1261.012329 1612.930176,1267.189697 1621.294556,1272.952026 
	C1623.324707,1274.350464 1626.164551,1275.263916 1628.624512,1275.247803 
	C1705.776367,1274.740479 1782.927246,1274.076904 1860.078613,1273.472900 
	C1876.572266,1273.343872 1893.066895,1273.350342 1909.561157,1273.301758 
	C1910.393555,1273.299316 1911.228516,1273.338623 1912.058228,1273.407227 
	C1921.834106,1274.216553 1928.227051,1280.322388 1927.988403,1288.610474 
	C1927.749878,1296.891113 1921.116943,1302.875366 1911.325684,1303.008911 
	C1869.338013,1303.580933 1827.348755,1304.065308 1785.359009,1304.465332 
	C1733.203857,1304.962280 1681.047852,1305.380981 1628.891235,1305.667603 
	C1626.277222,1305.682007 1623.238037,1304.713745 1621.097656,1303.207153 
	C1581.061768,1275.024536 1541.135620,1246.686157 1501.179443,1218.390137 
	C1467.196411,1194.324097 1433.217407,1170.252319 1399.176025,1146.269165 
	C1397.661133,1145.201782 1395.550171,1144.471924 1393.707275,1144.451660 
	C1303.731323,1143.457886 1213.754639,1142.517944 1123.777222,1141.664062 
	C1054.792114,1141.009399 985.803467,1140.682007 916.820923,1139.833374 
	C843.843872,1138.935425 770.872070,1137.606445 697.899170,1136.391968 
	C695.110168,1136.345581 692.230835,1135.850708 689.573120,1135.002441 
	C683.947266,1133.207153 680.277039,1127.978760 680.101196,1122.170776 
	C679.924561,1116.337158 683.182068,1110.804443 688.837646,1108.884888 
	C692.373596,1107.684937 696.314392,1107.203491 700.073181,1107.205078 
	C758.397705,1107.229248 816.723145,1107.233765 875.046509,1107.561035 
	C918.532654,1107.804932 962.016174,1108.505615 1006.000732,1109.003906 
z"/>
<path fill="#ED8C31" opacity="1.000000" stroke="none" 
	d="
M2449.591064,1052.000000 
	C2449.494629,1059.997803 2449.469238,1067.497437 2449.290527,1074.993408 
	C2449.047607,1085.183838 2443.521973,1091.407715 2434.950195,1091.317505 
	C2426.483154,1091.228394 2420.908203,1084.855103 2420.901611,1074.665649 
	C2420.855713,1005.010681 2420.876221,935.355713 2420.909668,865.700745 
	C2420.969238,741.721497 2421.045166,617.742310 2421.145264,493.763092 
	C2421.151855,485.600555 2421.330078,477.435059 2421.617432,469.277618 
	C2421.704102,466.815063 2422.157471,464.286713 2422.916992,461.942291 
	C2424.753906,456.274872 2429.888184,452.635803 2435.731689,452.505493 
	C2441.630371,452.373962 2447.028320,455.651093 2448.923584,461.341705 
	C2450.055420,464.741486 2450.545654,468.507019 2450.547852,472.108612 
	C2450.594727,548.426575 2450.609375,624.744629 2450.469727,701.062439 
	C2450.280273,804.711060 2449.955811,908.359375 2449.689941,1012.007812 
	C2449.656250,1025.171875 2449.625732,1038.335938 2449.591064,1052.000000 
z"/>
<path fill="#7C0F35" opacity="1.000000" stroke="none" 
	d="
M2204.346680,1413.453857 
	C2203.177002,1417.179932 2202.463379,1420.676270 2200.947021,1423.780396 
	C2197.428467,1430.982544 2189.728027,1434.095825 2183.544434,1431.206787 
	C2178.455322,1428.828979 2175.675781,1422.866211 2178.835449,1418.348633 
	C2183.367920,1411.868530 2183.616699,1404.564331 2184.489258,1397.431519 
	C2187.093994,1376.139893 2186.134521,1355.049805 2181.920898,1333.863403 
	C2174.295410,1295.518799 2160.230713,1259.468384 2144.927490,1223.775146 
	C2144.253662,1222.203247 2143.264893,1220.766357 2142.422852,1219.266479 
	C2141.930664,1219.330933 2141.438232,1219.395386 2140.945801,1219.459839 
	C2140.441650,1223.117554 2139.702881,1226.760620 2139.473633,1230.435547 
	C2138.474854,1246.457520 2136.179932,1262.232178 2131.041260,1277.504395 
	C2130.670654,1278.605469 2130.301758,1279.722412 2129.779541,1280.754639 
	C2127.364746,1285.528076 2123.464355,1287.664429 2118.869385,1286.803589 
	C2114.604492,1286.004517 2111.383057,1282.065674 2111.418213,1276.841797 
	C2111.449951,1272.196533 2112.106445,1267.554932 2112.498291,1262.912598 
	C2114.038330,1244.662842 2115.280029,1226.380127 2117.282715,1208.181274 
	C2118.018066,1201.498169 2119.816650,1194.698853 2122.446533,1188.512207 
	C2126.382568,1179.253906 2135.761719,1175.463013 2145.262939,1178.575562 
	C2149.325928,1179.906372 2153.493408,1181.631836 2156.896484,1184.147827 
	C2180.455078,1201.566162 2203.915039,1219.122192 2227.155762,1236.961304 
	C2230.553711,1239.569458 2233.240967,1243.612427 2235.148438,1247.531128 
	C2237.865234,1253.112915 2235.405762,1259.358765 2230.370361,1262.163086 
	C2225.718018,1264.754028 2220.630859,1262.691895 2216.018555,1258.787476 
	C2201.701172,1246.666992 2186.914307,1235.101318 2172.285156,1223.350952 
	C2171.962402,1223.091797 2171.344971,1223.199829 2169.903076,1223.009644 
	C2170.592041,1225.152832 2170.945312,1226.960693 2171.722412,1228.562988 
	C2183.677002,1253.211548 2193.348633,1278.690918 2200.036377,1305.287598 
	C2206.400879,1330.599854 2210.898193,1356.136841 2208.578125,1382.363647 
	C2207.669678,1392.632812 2205.845215,1402.820923 2204.346680,1413.453857 
z"/>
</svg>